<svg xmlns="http://www.w3.org/2000/svg" viewBox="0 0 292.97 27.7"><g data-name="Layer 2"><path d="M9.7 0H3.4A3.37 3.37 0 000 3.4v20.8a3.37 3.37 0 003.4 3.4h6.3c8.5 0 14.7-5.8 14.7-13.9v-.1C24.4 5.8 18.2 0 9.7 0zm11.1 13.9c0 6.3-4.6 10.6-11.1 10.6H3.5V4.3a1 1 0 011-1h5.2c6.5 0 11.1 4.3 11.1 10.6zM152.7 0h-7a3.37 3.37 0 00-3.4 3.4v24a.22.22 0 00.2.2h2.5a.79.79 0 00.8-.8V18h5.9c6.2 0 11.4-2.8 11.4-9.2v.1c0-5.4-4.1-8.9-10.4-8.9zm-6 3.3h5.8c4.5 0 7.1 2.1 7.1 5.7v.1c0 3.5-2.9 5.8-7.3 5.8h-6.5V4.2a.9.9 0 01.9-.9zm146.2 24.1l-10.3-13.8L292.5.4c.1-.1.1-.2 0-.2s-.1-.1-.2-.1h-2a3.5 3.5 0 00-2.8 1.4l-7.2 9.7-7.2-9.7a3.37 3.37 0 00-2.8-1.4h-2c-.1 0-.2 0-.2.1v.2l9.9 13.2-10.3 13.8c-.1.1-.1.2 0 .2s.1.1.2.1h1.9a3.5 3.5 0 002.8-1.4l7.6-10.2 7.6 10.2a3.37 3.37 0 002.8 1.4h2c.1 0 .2 0 .2-.1.2-.1.2-.2.1-.2zM209.9 0h-2.5a.79.79 0 00-.8.8v11.4h-15.3V.2a.22.22 0 00-.2-.2h-2.5a.79.79 0 00-.8.8v26.7a.22.22 0 00.2.2h2.5a.79.79 0 00.8-.8V15.5h15.3v12a.22.22 0 00.2.2h2.5a.79.79 0 00.8-.8V.2a.22.22 0 00-.2-.2zm32.8 0h-2.5a.79.79 0 00-.8.8v26.7a.35.35 0 00.1.2h2.7a.79.79 0 00.8-.8V.2c-.1-.1-.2-.2-.3-.2zM69.4 0H53.5a4.17 4.17 0 00-4 3v.2c0 .1.1.1.2.1h15.9a4.17 4.17 0 004-3V.1c-.1-.1-.1-.1-.2-.1zM68 12.2H52.1a4.17 4.17 0 00-4 3v.2c0 .1.1.1.2.1h15.9a4.17 4.17 0 004-3v-.2c-.1-.1-.1-.1-.2-.1zm-1.8 12.2H50.3a4.17 4.17 0 00-4 3v.2c0 .1.1.1.2.1h15.9a4.17 4.17 0 004-3v-.2a.35.35 0 01-.2-.1zM97 26V.8a.88.88 0 01.9-.8h2.5a.22.22 0 01.2.2v24.2H117a.22.22 0 01.2.2V27a.68.68 0 01-.7.7H98.8A1.77 1.77 0 0197 26z" fill="#333" data-name="Layer 1"/></g></svg>